<svg width="18" height="13" viewBox="0 0 18 13" fill="none" xmlns="http://www.w3.org/2000/svg">
<path fill-rule="evenodd" clip-rule="evenodd" d="M15.6679 12.6338C16.4022 12.4323 16.9805 11.8385 17.1768 11.0845C17.5335 9.71797 17.5335 6.86667 17.5335 6.86667C17.5335 6.86667 17.5335 4.01546 17.1768 2.64881C16.9805 1.89481 16.4022 1.30106 15.6679 1.09945C14.3371 0.733334 9.00013 0.733334 9.00013 0.733334C9.00013 0.733334 3.66321 0.733334 2.3323 1.09945C1.59795 1.30106 1.01962 1.89481 0.823354 2.64881C0.466797 4.01546 0.466797 6.86667 0.466797 6.86667C0.466797 6.86667 0.466797 9.71797 0.823354 11.0845C1.01962 11.8385 1.59795 12.4323 2.3323 12.6338C3.66321 13 9.00013 13 9.00013 13C9.00013 13 14.3371 13 15.6679 12.6338ZM7.40015 9.26672V3.93339L11.6668 6.59996L7.40015 9.26672Z" fill="white"/>
</svg>
